<svg width="25" height="30" viewBox="0 0 25 30" fill="none" xmlns="http://www.w3.org/2000/svg">
<path fill-rule="evenodd" clip-rule="evenodd" d="M0 4.23077C0 1.89418 1.98583 0 4.43548 0H17.3175C18.2267 0 19.0803 0.417805 19.6105 1.12238L24.4705 7.58069C24.8148 8.03828 25 8.58735 25 9.15061V25.7692C25 28.1058 23.0142 30 20.5645 30H4.43548C1.98583 30 0 28.1058 0 25.7692V4.23077ZM4.43548 2.30769C3.32201 2.30769 2.41935 3.16868 2.41935 4.23077V25.7692C2.41935 26.8313 3.32201 27.6923 4.43548 27.6923H20.5645C21.678 27.6923 22.5806 26.8313 22.5806 25.7692V10.2262H17.3387C16.6706 10.2262 16.129 9.70963 16.129 9.07238V2.30769H4.43548Z" fill="black"/>
<path d="M17.4769 16.8746C17.0596 17.3723 16.2983 17.4529 15.7766 17.0548L13.7098 15.4777V20.7692C13.7098 21.4065 13.1682 21.9231 12.5001 21.9231C11.832 21.9231 11.2904 21.4065 11.2904 20.7692V15.4776L9.22347 17.0548C8.70178 17.4529 7.94054 17.3723 7.52319 16.8746C7.10584 16.377 7.19042 15.6509 7.71211 15.2528L11.7401 12.1792C11.9453 12.0209 12.2059 11.9254 12.4899 11.9231C12.4933 11.9231 12.4967 11.9231 12.5001 11.9231L12.504 11.9231C12.7929 11.924 13.0579 12.0214 13.2655 12.1834L17.288 15.2528C17.8097 15.6509 17.8943 16.377 17.4769 16.8746Z" fill="black"/>
</svg>
