<svg width="25" height="25" viewBox="0 0 25 25" fill="none" xmlns="http://www.w3.org/2000/svg">
<path fill-rule="evenodd" clip-rule="evenodd" d="M18.7879 0.712075C17.5727 -0.503066 15.5146 -0.106696 14.8376 1.47282L12.6271 6.63079C10.5463 6.22274 8.30455 6.82384 6.69041 8.43799L4.31676 10.8117C3.91021 11.2182 3.91021 11.8773 4.31676 12.2839L7.7803 15.7474L0.304907 23.2229C-0.101635 23.6294 -0.101636 24.2885 0.304907 24.6951C0.71145 25.1016 1.37059 25.1016 1.77713 24.6951L9.25253 17.2197L12.7162 20.6833C12.9114 20.8786 13.1762 20.9882 13.4523 20.9882C13.7284 20.9882 13.9932 20.8786 14.1884 20.6833L16.5621 18.3097C18.1762 16.6955 18.7773 14.4537 18.3692 12.373L23.5272 10.1624C25.1067 9.48548 25.5031 7.42731 24.2879 6.21217L18.7879 0.712075ZM16.7513 2.29298C16.848 2.06733 17.142 2.01071 17.3156 2.1843L22.8157 7.68439C22.9893 7.85799 22.9327 8.15201 22.707 8.24872L16.7172 10.8158C16.2115 11.0325 15.9618 11.6054 16.1472 12.1234C16.7177 13.7173 16.3632 15.5641 15.0898 16.8375L13.4523 18.475L6.52509 11.5478L8.16263 9.91022C9.43602 8.63683 11.2827 8.28237 12.8766 8.85285C13.3946 9.03827 13.9675 8.78853 14.1843 8.2828L16.7513 2.29298Z" fill="black"/>
</svg>
