<svg width="75" height="75" viewBox="0 0 120 80" fill="none" xmlns="http://www.w3.org/2000/svg">
<path d="M74.9084 39.8891C74.959 59.1578 59.371 74.8279 40.0916 74.8891C20.8122 74.9503 5.14214 59.3796 5.09157 40.1108C5.041 20.8421 20.629 5.17205 39.9084 5.11082C59.1878 5.04959 74.8579 20.6204 74.9084 39.8891Z" fill="white" stroke="#3A4289" stroke-width="9"/>
<path d="M39.9695 15.9375C33.9605 15.9375 29.0893 20.8344 29.0893 26.875C29.0893 32.9156 33.9605 37.8125 39.9695 37.8125C45.9785 37.8125 50.8498 32.9156 50.8498 26.875C50.8498 20.8344 45.9785 15.9375 39.9695 15.9375Z" fill="#3A4289"/>
<path d="M28.3639 43.6458C22.3549 43.6458 17.4836 48.5427 17.4836 54.5833V58.0492C17.4836 60.2461 19.0675 62.1193 21.2243 62.4733C33.639 64.5108 46.3001 64.5108 58.7147 62.4733C60.8716 62.1193 62.4554 60.2461 62.4554 58.0492V54.5833C62.4554 48.5427 57.5842 43.6458 51.5752 43.6458H50.5862C50.0509 43.6458 49.519 43.7309 49.0101 43.898L46.4989 44.7223C42.2562 46.1149 37.6829 46.1149 33.4402 44.7223L30.929 43.898C30.4201 43.7309 29.8882 43.6458 29.3529 43.6458H28.3639Z" fill="#3A4289"/>
<path d="M105 56L92.0096 32L117.99 32L105 56Z" fill="white"/>
</svg>
