<svg width="30" height="30" viewBox="0 0 40 55" fill="none" xmlns="http://www.w3.org/2000/svg">
<g filter="url(#filter0_d_118_11)">
<path fill-rule="evenodd" clip-rule="evenodd" d="M21.9781 3.27848C21.9781 2.02011 21.0925 1 20 1C18.9076 1 18.0219 2.02011 18.0219 3.27848V4.98734H16.9193C12.518 4.98734 8.87523 8.92914 8.60048 13.989L8.16332 22.0399C7.99665 25.1095 7.102 28.0676 5.57679 30.592C4.19871 32.8728 5.42555 36.023 7.82084 36.3541L14.5603 37.2857V39.7342C14.5603 43.1947 16.9958 46 20 46C23.0043 46 25.4397 43.1947 25.4397 39.7342V37.2857L32.1792 36.3541C34.5745 36.023 35.8013 32.8728 34.4232 30.592C32.898 28.0676 32.0033 25.1095 31.8367 22.0399L31.3995 13.989C31.1248 8.92914 27.482 4.98734 23.0807 4.98734H21.9781V3.27848ZM16.9193 8.40506C14.0848 8.40506 11.7387 10.9437 11.5618 14.2024L11.1246 22.2533C10.9241 25.947 9.84749 29.5065 8.01215 32.5443C7.91255 32.7091 8.00122 32.9368 8.17435 32.9607L15.5677 33.9827C18.512 34.3897 21.488 34.3897 24.4323 33.9827L31.8256 32.9607C31.9988 32.9368 32.0874 32.7091 31.9878 32.5443C30.1525 29.5066 29.0759 25.947 28.8754 22.2533L28.4382 14.2024C28.2613 10.9437 25.9152 8.40506 23.0807 8.40506H16.9193ZM20 42.5823C18.6344 42.5823 17.5274 41.3071 17.5274 39.7342V38.0253H22.4726V39.7342C22.4726 41.3071 21.3656 42.5823 20 42.5823Z" fill="#F7DC6F"/>
<path fill-rule="evenodd" clip-rule="evenodd" d="M21.9781 3.27848C21.9781 2.02011 21.0925 1 20 1C18.9076 1 18.0219 2.02011 18.0219 3.27848V4.98734H16.9193C12.518 4.98734 8.87523 8.92914 8.60048 13.989L8.16332 22.0399C7.99665 25.1095 7.102 28.0676 5.57679 30.592C4.19871 32.8728 5.42555 36.023 7.82084 36.3541L14.5603 37.2857V39.7342C14.5603 43.1947 16.9958 46 20 46C23.0043 46 25.4397 43.1947 25.4397 39.7342V37.2857L32.1792 36.3541C34.5745 36.023 35.8013 32.8728 34.4232 30.592C32.898 28.0676 32.0033 25.1095 31.8367 22.0399L31.3995 13.989C31.1248 8.92914 27.482 4.98734 23.0807 4.98734H21.9781V3.27848ZM16.9193 8.40506C14.0848 8.40506 11.7387 10.9437 11.5618 14.2024L11.1246 22.2533C10.9241 25.947 9.84749 29.5065 8.01215 32.5443C7.91255 32.7091 8.00122 32.9368 8.17435 32.9607L15.5677 33.9827C18.512 34.3897 21.488 34.3897 24.4323 33.9827L31.8256 32.9607C31.9988 32.9368 32.0874 32.7091 31.9878 32.5443C30.1525 29.5066 29.0759 25.947 28.8754 22.2533L28.4382 14.2024C28.2613 10.9437 25.9152 8.40506 23.0807 8.40506H16.9193ZM20 42.5823C18.6344 42.5823 17.5274 41.3071 17.5274 39.7342V38.0253H22.4726V39.7342C22.4726 41.3071 21.3656 42.5823 20 42.5823Z" stroke="#F7DC6F" stroke-linecap="round"/>
</g>
<defs>
<filter id="filter0_d_118_11" x="0.5" y="0.5" width="39" height="54" filterUnits="userSpaceOnUse" color-interpolation-filters="sRGB">
<feFlood flood-opacity="0" result="BackgroundImageFix"/>
<feColorMatrix in="SourceAlpha" type="matrix" values="0 0 0 0 0 0 0 0 0 0 0 0 0 0 0 0 0 0 127 0" result="hardAlpha"/>
<feOffset dy="4"/>
<feGaussianBlur stdDeviation="2"/>
<feComposite in2="hardAlpha" operator="out"/>
<feColorMatrix type="matrix" values="0 0 0 0 0 0 0 0 0 0 0 0 0 0 0 0 0 0 0.25 0"/>
<feBlend mode="normal" in2="BackgroundImageFix" result="effect1_dropShadow_118_11"/>
<feBlend mode="normal" in="SourceGraphic" in2="effect1_dropShadow_118_11" result="shape"/>
</filter>
</defs>
</svg>
